# xmcd
#
# Track frame offsets:
#	150
#	8628
#	18784
#	25328
#	36466
#	43180
#	50852
#	58169
#	66244
#	77518
#	85776
#	90397
#	100280
#	109032
#	115007
#	120966
#	134728
#	142622
#	150552
#	157572
#	165549
#	172422
#	180365
#	190015
#	201293
#
# Disc length: 2857 seconds
#
# Revision: 1
# Processed by: cddbd v1.4PL0 Copyright (c) Steve Scherf et al.
# Submitted via: audiograbber 1.81.03
#
DISCID=3d0b2719
DTITLE=Michael and Matthew Rolland - Fingerprints
DYEAR=2001
DGENRE=Bluegrass
TTITLE0=Leather Britches
TTITLE1=Jessie Polka
TTITLE2=Mark's Waltz
TTITLE3=Wagoner Hornpipe
TTITLE4=Chancellor's Waltz
TTITLE5=Allentown Polka
TTITLE6=Hell Among The Yearlings
TTITLE7=Lucinda Waltz
TTITLE8=Don't Love Nobody
TTITLE9=Crying Waltz
TTITLE10=Cottonpatch Rag
TTITLE11=Wild John
TTITLE12=Midnight Waltz
TTITLE13=Sopping The Gravy
TTITLE14=Apple Blossom
TTITLE15=Kentucky Waltz
TTITLE16=Say Old Man
TTITLE17=Where The River Shannon Flows
TTITLE18=Wild Fiddler's Rag
TTITLE19=Hotfoot Rag
TTITLE20=Old South
TTITLE21=Calgary Polka
TTITLE22=Sally Johnson
TTITLE23=Blue Valley Waltz
TTITLE24=Cane Break
EXTD=Phone Orders 480-969-9744\nMail Orders 1616 W Mountain View Drive, Mesa, A
EXTD=Z, 85201
EXTT0=
EXTT1=
EXTT2=
EXTT3=
EXTT4=
EXTT5=
EXTT6=
EXTT7=
EXTT8=
EXTT9=
EXTT10=
EXTT11=
EXTT12=
EXTT13=
EXTT14=
EXTT15=
EXTT16=
EXTT17=
EXTT18=
EXTT19=
EXTT20=
EXTT21=
EXTT22=
EXTT23=
EXTT24=
PLAYORDER=
